:version 1.10
:name ASF
:units
  mass 1
  length 1
  angle deg
:documentation
  ASF file generated by Kaydara
:root
  axis xyz
  order  tx ty tz rx ry rz
  position 0 0 0
  orientation 0 0 0
:bonedata
  begin
    id 1
    name RightUpLegDummy
    direction -0.718183 -0.695806 0.00816078
    length 4.904
    axis 0 0 0 xyz
  end
  begin
    id 2
    name RightUpLeg
    direction 3.53989e-006 -0.995788 0.0916897
    length 17.4976
    axis -3.49089 -0.000906621 0.000287158 xyz
    dof rx ry rz
  end
  begin
    id 3
    name RightLeg
    direction 0.00371093 -0.995096 -0.0988418
    length 16.5821
    axis 3.68512 0.0193738 -0.131023 xyz
    dof rx ry rz
  end
  begin
    id 4
    name RightFoot
    direction 0.000791514 -0.46099 0.887405
    length 3.77069
    axis 4.84075e-005 -0.120479 -0.188788 xyz
    dof rx ry rz
  end
  begin
    id 5
    name RightToes
    direction 0.00124746 -0.014064 0.9999
    length 3.85082
    axis 0.00048216 0.542163 -0.142577 xyz
    dof rx ry rz
  end
  begin
    id 6
    name SpineDummy
    direction 8.36599e-015 1 5.97571e-016
    length 4.6813
    axis 0 0 0 xyz
  end
  begin
    id 7
    name Spine
    direction -4.63632e-008 0.999988 0.00495137
    length 10.1015
    axis -0.00138897 0.000121419 3.25764e-006 xyz
    dof rx ry rz
  end
  begin
    id 8
    name Spine1
    direction 0 0 0
    length 0
    axis -0.00138896 0.000121452 2.39764e-006 xyz
    dof rx ry rz
  end
  begin
    id 9
    name HEadDummy
    direction -3.91456e-008 0.999999 0.00127422
    length 3.43865
    axis -0.00138896 0.000121452 2.39764e-006 xyz
  end
  begin
    id 10
    name HEad
    direction -0.0222688 0.980941 0.193023
    length 5.12695
    axis -0.00138895 0.000121452 2.39764e-006 xyz
    dof rx ry rz
  end
  begin
    id 11
    name LeftShoulder1Dummy
    direction 0.998891 -0.0402508 -0.0244456
    length 3.5433
    axis -0.00138896 0.000121452 2.39764e-006 xyz
  end
  begin
    id 12
    name LeftShoulder1
    direction 0.99951 -0.000327743 0.0313091
    length 4.05031
    axis -0.00138896 0.000121452 2.39764e-006 xyz
    dof rx ry rz
  end
  begin
    id 13
    name LeftArm
    direction 0.998561 -0.00100054 -0.0536182
    length 10.3537
    axis -23.1894 0.134784 0.96751 xyz
    dof rx ry rz
  end
  begin
    id 14
    name LeftForeArm
    direction 0.998903 0.00866434 0.046012
    length 8.70632
    axis -9.91835 -0.06569 -0.177792 xyz
    dof rx ry rz
  end
  begin
    id 15
    name LeftHand
    direction 0.992938 -0.0411636 0.11126
    length 5.32135
    axis -0.00960227 -0.00340091 0.185174 xyz
    dof rx ry rz
  end
  begin
    id 16
    name RightShoulderDummy
    direction -0.998891 -0.0402509 -0.0244414
    length 3.5433
    axis -0.00138896 0.000121452 2.39764e-006 xyz
  end
  begin
    id 17
    name RightShoulder
    direction -0.99951 -0.000327827 0.0313133
    length 4.05031
    axis 0.215806 0.000203644 -0.00680151 xyz
    dof rx ry rz
  end
  begin
    id 18
    name RightArm
    direction -0.998573 -0.000999583 -0.053403
    length 10.3947
    axis -23.2009 -0.134239 -0.9641 xyz
    dof rx ry rz
  end
  begin
    id 19
    name RightForeArm
    direction -0.998898 0.00868026 0.0461306
    length 8.68355
    axis -9.92322 0.0658061 0.178869 xyz
    dof rx ry rz
  end
  begin
    id 20
    name RightHand
    direction -0.992843 -0.0414603 0.112003
    length 5.28593
    axis -0.00960634 0.00330671 -0.185226 xyz
    dof rx ry rz
  end
  begin
    id 21
    name LeftUpLegDummy
    direction 0.718183 -0.695806 0.00816078
    length 4.904
    axis 0 0 0 xyz
  end
  begin
    id 22
    name LeftUpLeg
    direction -6.8115e-006 -0.995793 0.0916336
    length 17.4976
    axis -3.48766 0.00143441 -0.000523914 xyz
    dof rx ry rz
  end
  begin
    id 23
    name LeftLeg
    direction -0.00601357 -0.995091 -0.0987824
    length 16.5821
    axis 3.68177 -0.00654038 -0.00028478 xyz
    dof rx ry rz
  end
  begin
    id 24
    name LeftFoot
    direction -0.00417578 -0.460984 0.887399
    length 3.77069
    axis 1.87232e-006 4.66002e-005 -8.1837e-006 xyz
    dof rx ry rz
  end
  begin
    id 25
    name LeftToes
    direction 0.00818058 -0.00485161 0.999955
    length 3.85048
    axis 1.06246e-005 4.65855e-005 -8.18502e-006 xyz
    dof rx ry rz
  end
:hierarchy
  begin
    root RightUpLegDummy SpineDummy LeftUpLegDummy
    RightUpLegDummy RightUpLeg
    RightUpLeg RightLeg
    RightLeg RightFoot
    RightFoot RightToes
    SpineDummy Spine
    Spine Spine1
    Spine1 HEadDummy LeftShoulder1Dummy RightShoulderDummy
    HEadDummy HEad
    LeftShoulder1Dummy LeftShoulder1
    LeftShoulder1 LeftArm
    LeftArm LeftForeArm
    LeftForeArm LeftHand
    RightShoulderDummy RightShoulder
    RightShoulder RightArm
    RightArm RightForeArm
    RightForeArm RightHand
    LeftUpLegDummy LeftUpLeg
    LeftUpLeg LeftLeg
    LeftLeg LeftFoot
    LeftFoot LeftToes
  end

:SAMPLES-PER-SECOND 30
:FULLY-SPECIFIED
:DEGREES
1
root  -4.28931 37.8049 3.85942 -2.62935 -71.9112 -7.357
RightUpLeg  -9.63093 -3.15593 -13.4497
RightLeg  31.9966 4.67549 3.19714
RightFoot  -1.84392 -2.09682 21.7675
RightToes  -5.82094e-011 -1.98785e-016 -5.10186e-018
Spine  19.5651 -1.59227 2.33566
Spine1  3.33952 -1.62548 2.44583
HEad  -26.8554 51.4814 -32.7052
LeftShoulder1  1.90028 -2.56881 -25.1035
LeftArm  -16.8145 33.5349 -46.7566
LeftForeArm  -162.639 -77.004 -143.502
LeftHand  -0.650302 -0.0550477 13.9984
RightShoulder  3.35276 6.34815 28.0759
RightArm  6.55563 -19.0606 40.2055
RightForeArm  81.9747 79.6612 63.0925
RightHand  -1.33832 6.6721 -13.2095
LeftUpLeg  -14.074 1.59363 15.5833
LeftLeg  36.3202 3.56221 3.46935
LeftFoot  0.631158 1.23535 -12.084
LeftToes  -8.4584e-011 5.90861e-011 8.40072e-012
2
root  -4.53819 36.2457 3.05758 16.9126 -76.1649 -30.0201
RightUpLeg  -11.0149 -7.35265 -7.33386
RightLeg  39.562 10.9422 9.15799
RightFoot  -13.4108 0.219012 14.2147
RightToes  -5.82094e-011 -1.98785e-016 -5.10186e-018
Spine  24.6829 -2.79308 8.30553
Spine1  1.33021 -0.823677 1.74876
HEad  -31.538 53.142 -35.8413
LeftShoulder1  1.72856 -2.01987 -25.1826
LeftArm  -18.6077 33.0946 -45.9779
LeftForeArm  -160.245 -76.5877 -145.011
LeftHand  -0.548977 1.5019 16.275
RightShoulder  3.08313 5.43047 28.5628
RightArm  2.08773 -19.767 37.679
RightForeArm  63.5336 76.4059 41.6802
RightHand  -1.82367 6.6922 -17.4945
LeftUpLeg  -15.4608 -0.416699 23.0067
LeftLeg  48.4578 7.87255 9.77557
LeftFoot  -5.243 0.929734 -16.3214
LeftToes  -8.4584e-011 5.90861e-011 8.40072e-012
3
root  -4.72223 35.6104 2.46997 46.8025 -79.6784 -58.382
RightUpLeg  -16.2003 -4.75775 -2.12322
RightLeg  43.3459 10.2294 9.91697
RightFoot  -15.0799 0.247658 10.6513
RightToes  -5.82094e-011 -1.98785e-016 -5.10186e-018
Spine  23.2409 -2.85649 12.4423
Spine1  2.9618 0.551313 0.149482
HEad  -35.9385 54.4427 -40.4966
LeftShoulder1  1.41717 -0.759114 -27.052
LeftArm  -22.8228 30.6818 -46.6472
LeftForeArm  -158.604 -76.8696 -144.42
LeftHand  -0.573734 1.69143 17.9162
RightShoulder  2.82326 4.66049 28.6549
RightArm  -0.925261 -21.04 35.1283
RightForeArm  54.1503 72.3018 29.4872
RightHand  -2.82343 8.1442 -24.2956
LeftUpLeg  -17.7638 -2.65593 27.005
LeftLeg  54.4556 10.1461 15.2931
LeftFoot  -3.73345 1.41267 -20.6467
LeftToes  -8.4584e-011 5.90861e-011 8.40072e-012
4
root  -5.04025 35.8446 1.86865 58.3321 -84.2617 -69.1109
RightUpLeg  -17.474 -1.93427 -3.73036
RightLeg  43.927 11.0936 10.8773
RightFoot  -15.0533 0.20694 8.64277
RightToes  -5.82094e-011 -1.98785e-016 -5.10186e-018
Spine  23.8084 -2.04471 9.34352
Spine1  2.58493 1.09799 -2.06924
HEad  -40.1319 55.0162 -44.801
LeftShoulder1  1.1138 0.102342 -26.6058
LeftArm  -26.2149 31.2481 -48.8329
LeftForeArm  -155.456 -75.1479 -149.121
LeftHand  -0.633524 1.43327 18.5848
RightShoulder  2.70623 4.27744 28.8416
RightArm  -0.919671 -26.7086 34.1031
RightForeArm  47.1405 70.6134 27.3372
RightHand  -3.05347 9.1743 -24.2679
LeftUpLeg  -16.3809 -3.2656 23.6142
LeftLeg  55.0924 13.502 20.1283
LeftFoot  0.34835 1.56281 -15.8248
LeftToes  -8.4584e-011 5.90861e-011 8.40072e-012
5
root  -5.26463 37.1723 1.57102 60.3434 -85.9405 -69.1378
RightUpLeg  -15.1674 -6.76668 -5.16452
RightLeg  36.3473 16.0642 12.1055
RightFoot  -9.26052 -0.209191 6.33475
RightToes  -5.82094e-011 -1.98785e-016 -5.10186e-018
Spine  20.6663 -2.33595 8.39748
Spine1  4.27826 0.514678 -3.09061
HEad  -40.9468 54.7265 -46.895
LeftShoulder1  1.0555 0.269243 -26.458
LeftArm  -26.332 31.3454 -49.3696
LeftForeArm  -152.444 -73.3381 -152.946
LeftHand  -0.607931 1.97359 20.5004
RightShoulder  2.43756 3.75526 27.6307
RightArm  1.65957 -33.0129 33.8986
RightForeArm  48.4927 70.7141 27.3253
RightHand  -2.42843 8.19035 -20.9016
LeftUpLeg  -15.5134 0.00437196 20.4353
LeftLeg  49.6671 17.319 21.1294
LeftFoot  5.6766 1.0697 -7.06359
LeftToes  -8.4584e-011 5.90861e-011 8.40072e-012
6
root  -5.34873 38.6793 1.22059 52.2364 -88.4566 -59.6733
RightUpLeg  -12.5482 -9.34675 -6.20889
RightLeg  27.6156 20.8839 11.2243
RightFoot  -0.553835 -0.964015 10.1345
RightToes  -5.82094e-011 -1.98785e-016 -5.10186e-018
Spine  20.8012 -1.92162 6.16668
Spine1  2.70109 0.630531 -4.76586
HEad  -39.7865 55.5195 -46.7766
LeftShoulder1  0.892355 0.658547 -25.1445
LeftArm  -25.47 31.1156 -49.486
LeftForeArm  -149.549 -71.1342 -156.524
LeftHand  -0.807905 0.819078 20.5008
RightShoulder  2.40825 3.84519 26.7953
RightArm  5.13828 -38.2524 33.3548
RightForeArm  51.8392 69.9608 25.3623
RightHand  -2.11946 9.13378 -17.1717
LeftUpLeg  -13.4615 9.10567 17.3476
LeftLeg  41.6687 16.1555 15.2405
LeftFoot  8.92867 1.45277 -8.43921
LeftToes  -8.4584e-011 5.90861e-011 8.40072e-012
7
root  -5.33304 39.9697 0.878117 135.053 -89.1233 -141.49
RightUpLeg  -10.6829 -11.6523 -7.45257
RightLeg  19.8083 23.1592 8.88201
RightFoot  9.19094 -2.75821 15.2108
RightToes  -5.82094e-011 -1.98785e-016 -5.10186e-018
Spine  21.9404 -1.34496 2.85644
Spine1  0.376979 0.419714 -5.25382
HEad  -39.0453 56.8467 -46.925
LeftShoulder1  0.820627 0.791371 -23.9969
LeftArm  -23.7814 30.3621 -48.0294
LeftForeArm  -148.167 -68.1928 -160.054
LeftHand  -0.908441 0.208851 20.3656
RightShoulder  2.52507 4.46499 25.6443
RightArm  6.72986 -41.8138 33.7612
RightForeArm  52.535 68.3238 22.6844
RightHand  -1.52242 10.1176 -11.7149
LeftUpLeg  -13.3731 17.4644 13.9893
LeftLeg  38.6194 12.473 10.7971
LeftFoot  9.48839 1.45174 -8.21166
LeftToes  -8.4584e-011 5.90861e-011 8.40072e-012
8
root  -5.27492 40.7247 0.50094 -100.697 -88.5384 95.0738
RightUpLeg  -9.65094 -12.4734 -8.71762
RightLeg  15.3875 14.5551 4.22766
RightFoot  14.3531 -4.82133 21.5442
RightToes  -5.82094e-011 -1.98785e-016 -5.10186e-018
Spine  21.5263 -1.31118 -0.755232
Spine1  0.329805 -0.786857 -3.53852
HEad  -39.7497 57.4245 -48.1946
LeftShoulder1  0.888465 0.495902 -23.1836
LeftArm  -21.5488 28.024 -45.4412
LeftForeArm  -146.837 -65.2234 -162.821
LeftHand  -0.795138 1.23364 22.0872
RightShoulder  2.71276 5.13517 25.3425
RightArm  6.79636 -43.3717 33.8847
RightForeArm  50.1655 65.8778 19.9644
RightHand  -1.24673 10.1717 -9.65916
LeftUpLeg  -16.1509 21.4966 11.5728
LeftLeg  41.3579 11.1832 10.7678
LeftFoot  8.42934 1.53222 -9.07081
LeftToes  -8.4584e-011 5.90861e-011 8.40072e-012
9
root  -5.14046 41.0939 0.137047 -28.4678 -86.6505 23.2618
RightUpLeg  -9.58638 -9.14366 -10.1133
RightLeg  17.8202 -2.36416 -1.14538
RightFoot  12.3679 -3.49625 16.8317
RightToes  -5.82094e-011 -1.98785e-016 -5.10186e-018
Spine  20.7438 -1.51211 -3.65272
Spine1  1.39803 -2.27997 -0.614783
HEad  -40.3899 58.1607 -49.0837
LeftShoulder1  0.99342 -0.179269 -20.7507
LeftArm  -20.7605 24.5918 -44.7957
LeftForeArm  -144.838 -63.0455 -164.566
LeftHand  -0.699684 1.66325 21.6907
RightShoulder  2.67718 5.08173 25.1232
RightArm  5.84124 -43.5695 35.3084
RightForeArm  46.3178 62.1094 16.7907
RightHand  -1.53738 9.81918 -12.0743
LeftUpLeg  -19.3058 23.1519 9.91127
LeftLeg  45.0083 11.5302 12.4881
LeftFoot  8.44848 1.43869 -8.53646
LeftToes  -8.4584e-011 5.90861e-011 8.40072e-012
